<svg width="402" height="257" viewBox="0 0 402 257" fill="none" xmlns="http://www.w3.org/2000/svg">
<g clip-path="url(#clip0_51_93)">
<path d="M101.531 77.9229C102.715 77.6091 103.963 77.7765 105.175 77.7521C116.907 77.766 128.64 77.7312 140.369 77.7695C141.355 77.6405 142.316 78.4913 142.167 79.5096C142.125 92.0527 142.18 104.596 142.146 117.139C142.128 119.451 142.309 121.78 142.027 124.078C141.275 125.257 139.697 124.744 138.54 124.835C138.868 120.556 137.68 116.156 135.008 112.77C131.859 108.669 126.769 106.113 121.589 106.165C115.793 106.046 110.104 109.188 107.039 114.102C105.572 116.347 104.809 118.966 104.419 121.602C104.109 122.631 104.133 123.716 104.119 124.779C103.14 124.783 101.953 125.107 101.183 124.319C100.601 123.709 100.709 122.816 100.681 122.045C100.688 107.978 100.671 93.9079 100.688 79.8374C100.622 79.0946 101.054 78.446 101.531 77.9229ZM119.311 85.6504C115.639 86.5361 112.759 89.9988 112.682 93.7963C112.466 96.9416 114.121 100.084 116.786 101.736C120.321 104.007 125.442 103.306 128.145 100.056C131.169 96.7359 130.991 91.0868 127.748 87.9728C125.606 85.755 122.279 84.9425 119.311 85.6504Z" fill="white"/>
<path d="M295.254 208.055C297.396 207.602 299.689 209.129 299.992 211.315C300.096 213.108 300.006 214.904 300.03 216.703C297.449 216.731 294.864 216.713 292.286 216.71C292.363 214.816 292.206 212.912 292.359 211.022C292.586 209.526 293.899 208.515 295.254 208.055Z" fill="white"/>
<path d="M308.502 208.034C310.453 207.727 312.602 208.972 313.013 210.963C313.264 212.864 313.114 214.792 313.118 216.706C310.529 216.727 307.945 216.71 305.356 216.713C305.367 214.932 305.262 213.146 305.388 211.368C305.551 209.708 306.952 208.442 308.502 208.034Z" fill="white"/>
<path d="M321.422 208.065C323.983 207.466 326.571 209.771 326.25 212.386C326.244 213.833 326.244 215.284 326.233 216.734C323.662 216.689 321.088 216.741 318.517 216.717C318.534 214.918 318.44 213.118 318.538 211.322C318.625 209.708 319.984 208.55 321.422 208.065Z" fill="white"/>
<path d="M334.646 208.048C336.517 207.727 338.499 208.78 339.157 210.59C339.317 212.627 339.14 214.673 339.275 216.713C336.701 216.703 334.127 216.745 331.556 216.686C331.542 214.907 331.431 213.118 331.594 211.347C331.758 209.708 333.127 208.48 334.646 208.048Z" fill="white"/>
<path d="M306.203 224.573C304.674 222.478 305.565 219.719 305.356 217.32C307.948 217.362 310.54 217.313 313.135 217.348C313.093 219.064 313.184 220.783 313.09 222.502C313.037 223.946 311.968 225.135 310.735 225.769C309.15 226.09 307.234 226.007 306.203 224.573Z" fill="white"/>
<path d="M318.566 217.278C321.14 217.432 323.725 217.236 326.303 217.397C326.052 219.534 326.606 221.759 325.888 223.827C325.394 224.73 324.585 225.452 323.627 225.829C322.513 225.919 321.28 226.066 320.29 225.421C319.29 224.776 318.507 223.677 318.517 222.453C318.489 220.727 318.472 219.001 318.566 217.278Z" fill="white"/>
<path d="M331.472 217.411C334.005 217.243 336.544 217.379 339.08 217.331H339.223C339.202 219.175 339.272 221.023 339.202 222.868C339.14 224.075 338.185 225.027 337.203 225.609C336.074 226.062 334.789 225.965 333.639 225.661C332.681 224.971 331.81 224.061 331.626 222.847C331.371 221.044 331.633 219.221 331.472 217.411Z" fill="white"/>
<path d="M292.279 217.372C294.867 217.32 297.459 217.303 300.044 217.383C299.999 219.078 300.072 220.776 300.016 222.471C299.929 223.96 298.856 225.229 297.518 225.808C296.56 225.892 295.55 226.034 294.623 225.703C293.366 225.159 292.303 223.914 292.314 222.492C292.269 220.786 292.317 219.078 292.279 217.372Z" fill="white"/>
<path d="M141.79 13.1255C143.508 12.7768 145.281 12.8849 147.009 13.115C143.773 13.7811 140.892 15.828 139.125 18.6107C137.756 18.0772 136.328 17.7215 134.914 17.3309L134.761 17.2856C136.638 15.2526 139.049 13.6764 141.79 13.1255Z" fill="#E8E8E8"/>
<path d="M146.974 19.6952C148.078 18.4538 150.13 18.1609 151.419 19.2802C153.074 20.431 153.157 23.0254 151.663 24.3365C150.363 23.8518 149.162 23.1684 147.97 22.4709C147.838 22.5058 147.577 22.5755 147.444 22.6139C147.615 21.6096 147.291 20.6297 146.974 19.6952Z" fill="#E8E8E8"/>
<path d="M242.482 21.6375C244.001 21.5992 245.579 21.4457 247.025 22.0385C247.025 22.586 247.021 23.1335 247.011 23.6775C244.374 23.6914 241.785 24.5318 239.619 26.0208C238.598 25.7418 237.668 26.3381 236.807 26.795C233.501 28.7652 231.265 32.4336 231.129 36.2973C231.007 39.7356 231.105 43.1774 231.098 46.6157C231.599 46.7029 232.101 46.7935 232.613 46.8598C232.348 47.4805 232.125 48.1256 232.174 48.8091C232.202 52.1776 232.188 55.5462 232.185 58.9147C232.157 64.4069 234.198 69.8887 237.842 74.0034C240.444 77.0163 243.861 79.269 247.592 80.629C247.913 80.9393 248.178 81.295 248.456 81.6472C242.904 81.3752 237.619 78.5751 233.836 74.5684C229.893 70.3908 227.614 64.6824 227.68 58.9252C227.736 55.2079 227.642 51.4837 227.743 47.7699C227.768 46.7726 228.823 46.6994 229.576 46.6366C229.753 43.3029 229.603 39.9553 229.649 36.6147C229.527 32.4859 231.7 28.4165 235.076 26.0766C237.166 24.4656 239.828 23.8344 242.416 23.6321C242.437 22.9661 242.458 22.3036 242.482 21.6375Z" fill="#E8E8E8"/>
<path d="M272.527 22.7673C273.555 21.1947 275.704 21.6271 277.293 21.6898C277.394 21.7596 277.596 21.906 277.697 21.9793C277.272 22.5023 276.777 22.9975 276.554 23.6461C276.119 24.9189 276.77 26.502 278.063 26.9763L277.798 27.0286C276.429 27.3459 274.931 27.4715 273.579 27.0495C271.918 26.4149 271.434 24.1064 272.527 22.7673Z" fill="#E8E8E8"/>
<path d="M242.301 26.3033C243.757 25.6198 245.352 25.299 246.958 25.2397C246.955 25.7872 246.965 26.3347 246.993 26.8786C245.607 27.4959 244.008 27.3424 242.548 27.1472C242.485 26.9379 242.36 26.516 242.301 26.3033Z" fill="#E8E8E8"/>
<path d="M282.208 26.3625C282.233 25.9929 282.26 25.6268 282.295 25.2571C283.142 25.299 284.002 25.3583 284.824 25.5954C285.848 26.774 287.127 27.719 288.012 29.0197C289.426 31.0318 290.346 33.4344 290.412 35.9103C290.482 39.5055 290.325 43.1077 290.478 46.7063C291.049 46.7412 291.628 46.7796 292.206 46.7866C291.84 47.1387 291.415 47.5363 291.481 48.1012C291.44 51.7104 291.485 55.3195 291.471 58.9287C291.485 63.6258 289.464 68.2846 286.051 71.5032C283.184 74.2475 279.352 76.0574 275.373 76.2701C274.837 76.148 274.325 75.9876 273.806 75.8272C278.888 74.4533 283.396 70.8302 285.423 65.9168C286.347 63.9501 286.841 61.7986 286.956 59.6331C287.033 55.6822 286.848 51.7278 287.009 47.7839C287.012 46.8528 288.144 46.8144 288.799 46.6052C288.956 44.3177 288.844 42.0232 288.876 39.7356C288.789 37.5352 289.133 35.2512 288.36 33.1345C287.357 30.1879 285.18 27.4645 282.208 26.3625Z" fill="#E8E8E8"/>
<path d="M257.203 81.846C258.694 81.8878 260.199 81.7309 261.687 81.9331C261.864 82.9793 261.763 84.0428 261.774 85.0994C261.774 91.2472 261.777 97.395 261.777 103.543C261.586 110.974 256.002 117.857 248.791 119.604C247.101 119.325 245.429 120.469 243.795 119.782C246.77 118.987 249.637 117.603 251.807 115.368C254.943 112.526 256.796 108.432 257.287 104.261C257.35 98.5701 257.284 92.8757 257.308 87.1812C257.301 85.4028 257.378 83.6209 257.203 81.846Z" fill="#E8E8E8"/>
<path d="M41.05 190.445C41.0953 190.344 41.1894 190.145 41.2381 190.047C41.8338 191.359 43.3666 191.788 44.1086 192.977C44.2514 193.601 43.9413 194.347 44.4778 194.856C43.5895 199.965 44.5405 205.461 47.6095 209.701C50.3058 213.697 54.6114 216.361 59.2306 217.557C57.6909 218.213 55.9804 217.721 54.4059 217.47C48.4595 216.222 43.2516 211.936 40.8689 206.346C38.6081 201.353 38.7892 195.407 41.05 190.445Z" fill="#E8E8E8"/>
<path d="M67.5876 206.775C69.2109 207.256 70.8099 207.807 72.4227 208.32C72.6143 209.781 72.5899 211.253 72.4541 212.717C70.8482 212.839 69.2388 212.808 67.6294 212.78C67.5249 210.778 67.5806 208.777 67.5876 206.775Z" fill="#E8E8E8"/>
<path d="M67.6085 218.31C69.3329 218.258 71.0572 218.279 72.7781 218.342C72.8512 219.744 72.785 221.146 72.7711 222.551C71.0642 222.868 69.3189 222.83 67.619 223.189C67.5737 221.56 67.5493 219.935 67.6085 218.31Z" fill="#E8E8E8"/>
<path d="M147.009 13.115C151.433 12.1874 156.285 13.9798 159.013 17.596C160.532 19.4546 161.106 21.8328 161.977 24.0227C162.803 26.1777 163.374 28.6954 165.437 30.0449C166.83 31.1678 168.648 31.2619 170.352 31.384C173.48 32.0117 176.831 31.6839 179.771 33.0892C181.767 34.0202 183.481 35.5476 184.61 37.4411C186.31 40.1471 186.31 43.425 186.933 46.4657C187.097 47.9547 187.512 49.4054 187.609 50.9013C187.735 52.1393 186.602 53.3388 185.355 53.2447C161.42 53.2586 137.485 53.2586 113.549 53.2447C112.278 53.3737 111.118 52.1358 111.247 50.8839C111.316 49.5867 111.724 48.3383 111.863 47.0481C112.553 43.8155 112.494 40.3005 114.26 37.3958C115.925 34.5782 118.872 32.8904 121.945 32.0152C123.714 31.9907 125.466 31.7257 127.229 31.5688C128.239 31.5758 129.253 31.5583 130.267 31.4991C129.539 31.4921 128.811 31.5025 128.086 31.5235C128.048 31.3247 128.016 31.1259 127.992 30.9237C128.605 31.5862 129.532 31.2933 130.302 31.241C132.528 31.0074 134.604 29.5567 135.544 27.5203C136.837 24.5911 137.589 21.4318 139.125 18.6107C140.892 15.828 143.772 13.7811 147.009 13.115ZM146.974 19.6952C145.873 20.8355 145.863 22.6802 146.796 23.932C147.455 24.5074 148.148 25.2083 149.085 25.2327C150.046 25.3652 150.914 24.884 151.663 24.3365C153.157 23.0254 153.073 20.431 151.419 19.2802C150.13 18.1609 148.078 18.4538 146.974 19.6952Z" fill="#16CBB7"/>
<path d="M294.993 46.6645C295.257 46.661 295.79 46.6575 296.059 46.654C296.456 47.076 297.051 47.4805 296.971 48.143C296.992 51.5081 296.968 54.8766 296.982 58.2417C297.093 63.2945 295.543 68.3892 292.533 72.4587C289.447 76.7234 284.831 79.8409 279.735 81.145C275.704 82.2191 271.493 81.7797 267.375 81.8076C267.149 89.3711 267.389 96.9556 267.257 104.526C266.703 112.337 261.843 119.625 254.869 123.154C251.49 124.929 247.655 125.766 243.851 125.721C237.898 125.707 231.944 125.735 225.994 125.707C225.963 123.876 225.966 122.045 225.991 120.218C232.408 120.183 238.824 120.236 245.241 120.166C246.446 120.152 247.617 119.845 248.791 119.604C256.002 117.857 261.586 110.974 261.777 103.543C261.777 97.395 261.774 91.2472 261.774 85.0994C261.763 84.0428 261.864 82.9793 261.687 81.9331C260.199 81.7309 258.694 81.8878 257.203 81.846C253.964 81.9227 250.651 81.7867 247.592 80.629C243.861 79.269 240.444 77.0163 237.842 74.0034C234.198 69.8887 232.157 64.4069 232.185 58.9147C232.188 55.5462 232.202 52.1776 232.174 48.8091C232.125 48.1256 232.348 47.4805 232.613 46.8598C233.122 46.804 233.637 46.7447 234.153 46.6784C234.651 46.6436 235.153 46.6331 235.658 46.6401C236.574 46.5634 237.762 47.0062 237.689 48.1151C237.713 51.8324 237.685 55.5497 237.696 59.2669C237.692 62.9598 239.068 66.5898 241.287 69.5155C244.562 73.8151 249.923 76.4828 255.34 76.3259C262.018 76.3224 268.696 76.3921 275.373 76.2701C279.352 76.0574 283.184 74.2475 286.05 71.5032C289.464 68.2846 291.485 63.6258 291.471 58.9287C291.485 55.3195 291.44 51.7103 291.481 48.1012C291.415 47.5363 291.84 47.1387 292.206 46.7865C292.499 46.7587 293.08 46.6994 293.373 46.6715C293.909 46.6506 294.449 46.661 294.993 46.6645Z" fill="#16CBB7"/>
<path d="M315.594 111.762C316.72 111.228 318.106 111.514 319.012 112.348C319.991 113.254 320.886 114.252 321.868 115.162C321.307 115.919 320.625 116.574 319.935 117.209C319.123 117.938 318.437 118.795 317.594 119.486C316.963 119.747 316.598 119.022 316.18 118.701C315.128 117.554 313.56 116.473 313.682 114.722C313.616 113.443 314.49 112.316 315.594 111.762Z" fill="#16CBB7"/>
<path d="M320.398 117.676C321.053 117 321.666 116.26 322.481 115.769C323.756 117.421 326.271 118.579 325.993 121.003C325.986 123.182 323.408 124.567 321.499 123.691C320.081 122.795 319.005 121.487 317.852 120.291C318.684 119.402 319.541 118.541 320.398 117.676Z" fill="#16CBB7"/>
<path d="M310.439 147.989C312.163 147.17 314.462 147.728 315.483 149.384C316.413 150.779 316.333 152.812 315.18 154.061C314.051 155.291 312.818 156.421 311.654 157.617L311.397 157.377C309.641 155.605 307.809 153.9 306.154 152.035C307.607 150.713 308.84 149.147 310.439 147.989Z" fill="#16CBB7"/>
<path d="M100.793 150.458C102.301 150.462 103.809 150.444 105.318 150.486C105.325 152.003 105.325 153.523 105.328 155.044C103.813 155.096 102.294 155.075 100.779 155.068C100.775 153.53 100.768 151.993 100.793 150.458ZM100.963 150.72C101.005 150.831 101.089 151.051 101.131 151.159C102.325 150.978 103.534 150.929 104.736 151.089C104.868 152.348 104.527 153.663 104.778 154.894L105.144 154.967C105.098 153.527 105.105 152.087 105.175 150.65C103.775 150.769 102.367 150.755 100.963 150.72Z" fill="#16CBB7"/>
<path d="M302.19 156.041C303.339 154.897 304.405 153.649 305.712 152.68C307.422 154.434 309.23 156.1 310.878 157.917L311.111 158.203C309.575 159.546 308.342 161.227 306.638 162.37C305.255 162.44 303.594 162.771 302.496 161.69C300.817 160.355 300.664 157.544 302.19 156.041Z" fill="#16CBB7"/>
<path d="M288.621 173.428C307.255 173.397 325.888 173.407 344.522 173.421C346.354 173.348 348.141 174.519 348.74 176.27C348.434 180.385 348.705 184.524 348.622 188.653C348.611 199.344 348.618 210.039 348.604 220.734C348.664 223.695 348.479 226.659 348.705 229.612C348.183 230.766 347.207 231.642 346.027 232.085C329.382 232.05 312.741 232.078 296.097 232.067C292.708 231.98 289.297 232.259 285.922 231.917C286.845 230.913 287.939 229.992 288.412 228.667C289.074 227.276 288.872 225.703 288.907 224.214C288.928 223.147 288.9 222.08 288.719 221.034C288.496 215.828 288.688 210.604 288.621 205.391C288.621 194.738 288.625 184.081 288.621 173.428ZM305.729 180.852C304.987 182.027 304.437 183.398 304.572 184.817C304.667 187.945 304.503 191.08 304.632 194.204C305.025 195.466 305.663 196.795 306.865 197.472C307.958 198.221 309.387 198.117 310.634 197.907C311.097 197.754 311.818 197.468 311.675 196.84L311.818 196.767C312.316 196.112 312.982 195.463 313.03 194.591C313.132 192.886 313.1 191.174 313.058 189.465L313.274 189.469L313.191 188.848L313.449 188.538L312.992 188.506C313.379 186.351 313.278 184.175 312.94 182.024C312.504 181.546 312.208 180.95 311.696 180.549C311.815 179.942 311.195 179.705 310.78 179.506C309.031 178.927 306.913 179.398 305.729 180.852ZM317.824 182.752C317.723 184.14 317.799 185.535 317.799 186.927C317.942 189.476 317.66 192.028 317.827 194.574C317.995 195.261 318.447 195.833 318.789 196.446L319.311 196.188C320.255 197.639 322.088 197.775 323.652 197.538C324.589 196.99 325.829 196.352 325.871 195.114L326.188 194.881C326.195 195.072 326.202 195.456 326.209 195.644C326.7 194.79 326.484 193.772 326.536 192.837C326.505 189.929 326.505 187.021 326.54 184.112C326.512 183.401 326.686 182.596 326.129 182.031L325.784 182.334L325.881 181.909C325.432 180.772 324.342 180.263 323.331 179.757C322.614 179.729 321.879 179.638 321.189 179.855C321.948 179.401 322.865 179.572 323.711 179.489C321.22 178.505 318.496 180.308 317.824 182.752ZM290.544 183.408C290.523 186.902 290.52 190.396 290.527 193.89C290.516 195.916 292.286 197.615 294.254 197.771C295.665 197.981 297.323 198.274 298.529 197.301C299.696 196.551 300.347 195.205 300.371 193.838C300.462 191.069 300.326 188.3 300.41 185.535C300.361 184.315 300.643 182.937 299.856 181.888C298.922 179.977 296.63 179.164 294.637 179.774C292.544 179.241 290.537 181.372 290.544 183.408ZM329.866 183.432C329.863 186.679 329.877 189.925 329.859 193.172C329.87 194.155 329.835 195.254 330.511 196.056C331.11 196.732 331.862 197.771 332.89 197.189C333.974 198.165 335.534 197.869 336.861 197.799C338.063 197.266 339.223 196.268 339.425 194.895C339.683 192.865 339.484 190.808 339.474 188.771C339.718 186.637 339.669 184.482 339.544 182.341C339.14 184.287 339.526 186.358 339.38 188.349L339.101 188.307C339.213 186.452 339.181 184.59 339.143 182.735C339.108 181.263 337.729 180.364 336.555 179.771C335.656 179.729 334.709 179.611 333.862 179.97C331.81 179.304 329.772 181.448 329.866 183.432ZM290.506 212.013C290.572 215.73 290.37 219.458 290.603 223.165C291.276 225.504 293.92 226.366 296.111 226.456C296.588 226.345 297.553 226.585 297.518 225.808C298.856 225.229 299.929 223.96 300.016 222.471C300.072 220.776 299.999 219.078 300.044 217.383C297.459 217.303 294.867 217.32 292.279 217.372C292.283 217.205 292.283 216.877 292.286 216.71C294.864 216.713 297.449 216.731 300.03 216.703C300.006 214.904 300.096 213.108 299.992 211.315C299.689 209.129 297.396 207.602 295.254 208.055C292.934 207.361 290.332 209.603 290.506 212.013ZM303.796 211.005C303.573 213.882 303.771 216.78 303.691 219.667C303.698 221.282 303.479 223.116 304.534 224.483C306.029 226.069 308.523 226.836 310.602 226.223L310.735 225.769C311.968 225.135 313.037 223.946 313.09 222.502C313.184 220.783 313.093 219.064 313.135 217.348C310.54 217.313 307.948 217.362 305.356 217.32C305.356 217.17 305.356 216.867 305.356 216.713C307.945 216.71 310.529 216.727 313.118 216.706C313.114 214.792 313.264 212.864 313.013 210.963C312.602 208.972 310.453 207.727 308.502 208.034C306.495 207.302 304.37 209.136 303.796 211.005ZM316.709 211.671C316.587 214.809 316.754 217.951 316.667 221.093C316.625 222.694 317.047 224.601 318.534 225.466C319.691 225.975 320.931 226.334 322.196 226.453C322.676 226.404 323.711 226.627 323.627 225.829C324.585 225.452 325.394 224.73 325.888 223.827C326.042 223.775 326.352 223.674 326.505 223.621C326.926 222.139 326.662 220.532 326.735 219.001C326.637 218.258 326.885 217.257 326.233 216.734C326.244 215.284 326.244 213.833 326.251 212.386C326.571 209.771 323.983 207.466 321.422 208.065C319.29 207.487 316.758 209.418 316.709 211.671ZM331.998 208.505C330.803 209.084 329.835 210.276 329.863 211.65C329.898 215.148 329.852 218.649 329.866 222.146C329.72 224.235 331.751 226.16 333.813 226.017L333.639 225.661C334.789 225.965 336.074 226.062 337.203 225.609C338.185 225.027 339.14 224.075 339.202 222.868C339.272 221.023 339.202 219.175 339.223 217.331H339.08L338.924 216.951C336.478 216.783 334.012 216.884 331.559 216.926L331.556 216.686C334.127 216.745 336.701 216.703 339.275 216.713C339.37 216.581 339.565 216.312 339.659 216.176C339.868 214.45 339.774 212.686 339.687 210.953C339.554 210.862 339.289 210.681 339.157 210.59C338.499 208.78 336.517 207.727 334.646 208.048C333.751 207.595 332.796 208.107 331.998 208.505ZM334.015 226.115C334.911 226.592 336.011 226.575 336.917 226.125C335.952 225.975 334.977 225.958 334.015 226.115Z" fill="#16CBB7"/>
<path d="M100.789 175.171C102.308 175.192 103.83 175.105 105.346 175.241C105.283 176.605 105.373 177.968 105.318 179.332C105.217 179.415 105.022 179.579 104.924 179.663C103.572 179.743 102.221 179.631 100.869 179.715C100.678 178.209 100.81 176.685 100.789 175.171Z" fill="#16CBB7"/>
<path d="M58.9239 179.834C61.7804 179.251 64.7031 179.45 67.598 179.426C69.3223 179.426 71.0432 179.436 72.7675 179.408C72.9661 180.904 72.9696 182.414 72.8267 183.921C69.061 184.064 65.2709 183.652 61.5261 184.109C55.5066 184.764 50.243 189.612 49.0551 195.543C48.2469 198.793 48.7834 202.287 50.2778 205.258C52.5073 209.676 57.0707 212.881 62.0278 213.254C63.9019 213.341 65.7761 213.268 67.6502 213.293C69.4059 213.313 71.1651 213.261 72.9208 213.331C69.0819 213.816 65.1804 213.272 61.3241 213.613C67.8174 213.938 74.3212 213.526 80.818 213.69C82.8489 213.798 84.8867 213.885 86.9211 213.868C86.74 215.099 86.7365 216.365 87.1441 217.557C87.9279 217.624 88.7186 217.658 89.5024 217.592C89.5547 217.435 89.6592 217.128 89.7114 216.971C89.8125 217.243 89.9135 217.512 90.0215 217.784C87.3043 218.112 84.5767 217.665 81.8595 218.052C78.8289 218.087 75.7982 217.861 72.7675 218.018C68.2563 217.941 63.6999 218.202 59.2305 217.557C54.6113 216.361 50.3057 213.697 47.6094 209.701C44.5404 205.46 43.5894 199.965 44.4777 194.856C45.0177 192.488 45.8886 190.18 47.2367 188.15C49.8842 183.994 54.2038 181.107 58.9239 179.834Z" fill="#16CBB7"/>
<path d="M101.712 15.0015C104.28 15.0817 106.812 14.5482 109.38 14.6528C112.745 14.7156 116.124 14.4785 119.468 14.9492C122.443 14.9144 125.404 15.291 128.32 15.8803C130.507 16.1209 132.653 16.6579 134.761 17.2856L134.914 17.3309C132.228 20.4449 131.887 24.7724 129.908 28.2735C128.968 29.9159 127.201 30.8051 125.435 31.2724C126.031 31.377 126.627 31.4886 127.229 31.5688C125.467 31.7257 123.714 31.9907 121.945 32.0152C120.548 31.6595 119.12 31.921 117.719 32.0779C114.281 32.3499 110.822 34.2957 109.244 37.4306C100.695 37.5283 92.1431 37.4446 83.591 37.476C81.2953 37.5108 78.9927 37.3644 76.7075 37.6155C74.3631 37.5631 71.6564 37.0924 69.7265 38.7767C68.1171 39.9693 67.5214 42.0162 67.5737 43.9446C67.5946 89.1061 67.5458 134.264 67.5981 179.426C64.7032 179.45 61.7806 179.251 58.9241 179.834C57.4679 179.164 55.8586 179.586 54.3606 179.862C48.7417 181.072 43.8438 184.935 41.2381 190.047C41.1894 190.145 41.0953 190.344 41.05 190.445C35.7202 185.396 30.6691 179.984 26.6735 173.798C16.0592 157.966 10.7886 138.919 10.0953 119.974C10.1546 116.375 9.9769 112.77 10.1894 109.174C10.5517 107.072 10.3113 104.924 10.6875 102.824C12.5129 85.1029 17.8114 67.3535 28.3491 52.8123C30.1117 50.3016 32.0625 47.9303 34.0516 45.594C36.3682 43.2576 38.6638 40.8968 41.057 38.6337C45.4079 35.0001 49.9749 31.5828 54.918 28.7966C57.5237 27.1193 60.415 25.979 63.1426 24.5214C71.7679 20.6472 80.9017 17.9761 90.2236 16.4103C94.0381 15.821 97.8735 15.3886 101.712 15.0015Z" fill="#F0F3FD"/>
<path d="M86.2036 48.7882C86.1548 47.4108 87.4786 46.2879 88.8267 46.4623C96.4382 46.4936 104.053 46.4274 111.668 46.4936C111.717 46.6331 111.815 46.9086 111.863 47.0481C111.724 48.3383 111.316 49.5867 111.247 50.8839C111.118 52.1358 112.278 53.3737 113.549 53.2447C137.485 53.2586 161.42 53.2586 185.355 53.2447C186.603 53.3388 187.735 52.1393 187.609 50.9013C187.512 49.4054 187.097 47.9547 186.934 46.4657C194.758 46.4832 202.585 46.4518 210.409 46.4762C211.82 46.3995 212.76 47.8536 212.611 49.1543C212.593 67.643 212.607 86.1316 212.604 104.62C212.562 121.589 212.687 138.564 212.541 155.532C212.353 157.035 212.37 158.552 212.391 160.065C212.395 175.178 212.391 190.292 212.395 205.405C212.37 206.827 212.659 208.4 211.743 209.631C210.845 209.802 209.932 209.962 209.016 209.945C181.259 209.875 153.502 209.934 125.745 209.921C120.475 209.952 115.194 209.847 109.926 210.008C108.495 206.615 105.844 203.713 102.475 202.186C99.7859 200.906 96.7204 200.606 93.7907 201.028C91.2268 200.708 88.6037 200.885 86.1722 201.803C86.2349 150.797 86.1722 99.7906 86.2036 48.7882ZM101.531 77.923C101.054 78.446 100.622 79.0946 100.688 79.8374C100.671 93.9079 100.688 107.978 100.681 122.045C100.709 122.816 100.601 123.709 101.183 124.319C101.953 125.107 103.141 124.783 104.119 124.779C104.133 123.716 104.109 122.631 104.419 121.603C104.416 122.673 104.454 123.747 104.461 124.821C115.821 124.87 127.18 124.842 138.54 124.835C139.697 124.744 141.275 125.257 142.027 124.078C142.309 121.78 142.128 119.451 142.146 117.139C142.181 104.596 142.125 92.0527 142.167 79.5096C142.316 78.4914 141.355 77.6405 140.369 77.7695C128.64 77.7312 116.907 77.766 105.175 77.7521C103.963 77.7765 102.716 77.6091 101.531 77.923ZM152.21 103.658C152.178 104.317 152.171 104.979 152.192 105.642C161.511 105.656 170.826 105.691 180.144 105.628C180.162 104.966 180.148 104.306 180.106 103.647C170.805 103.665 161.507 103.64 152.21 103.658ZM152.241 114.82C152.182 115.49 152.154 116.159 152.164 116.832C160.898 116.965 169.634 116.829 178.368 116.898C183.453 116.815 188.546 117.01 193.625 116.801C193.604 116.138 193.591 115.479 193.58 114.824C179.799 114.803 166.022 114.806 152.241 114.82ZM100.793 150.458C100.768 151.993 100.775 153.53 100.779 155.068C102.294 155.075 103.813 155.096 105.328 155.044C105.325 153.524 105.325 152.003 105.318 150.486C103.809 150.444 102.301 150.462 100.793 150.458ZM112.191 151.783C112.083 152.436 112.086 153.098 112.152 153.757C120.172 153.82 128.191 153.75 136.21 153.785C155.345 153.733 174.483 153.855 193.615 153.729C193.598 153.081 193.584 152.436 193.577 151.79C166.447 151.756 139.317 151.776 112.191 151.783ZM100.768 163.964C100.824 165.498 100.66 167.04 100.873 168.567C102.346 168.49 103.82 168.539 105.297 168.515C105.325 166.998 105.339 165.481 105.293 163.967C103.788 163.797 102.273 163.859 100.768 163.964ZM112.111 165.247C112.097 165.875 112.111 166.503 112.149 167.134C139.098 167.214 166.05 167.141 193.002 167.169C193.977 167.235 193.479 165.899 193.636 165.317C186.683 165.125 179.719 165.303 172.762 165.24C152.548 165.244 132.329 165.23 112.111 165.247ZM100.789 175.171C100.81 176.685 100.678 178.209 100.869 179.715C102.221 179.632 103.573 179.743 104.924 179.663C105.022 179.579 105.217 179.415 105.318 179.332C105.373 177.968 105.283 176.605 105.346 175.241C103.83 175.105 102.308 175.192 100.789 175.171ZM112.111 176.43C112.058 177.103 112.065 177.783 112.198 178.449C139.334 178.435 166.471 178.498 193.604 178.418C193.598 177.762 193.598 177.107 193.604 176.455C186.313 176.315 179.019 176.448 171.724 176.392C151.854 176.42 131.981 176.354 112.111 176.43ZM100.779 186.327C100.814 187.844 100.664 189.374 100.873 190.884C102.35 190.801 103.83 190.877 105.307 190.811C105.328 189.347 105.286 187.882 105.353 186.421C103.834 186.219 102.301 186.362 100.779 186.327ZM112.135 187.624C112.079 188.283 112.079 188.946 112.18 189.605C139.317 189.608 166.454 189.622 193.591 189.608C193.594 188.956 193.601 188.307 193.611 187.662C186.198 187.537 178.786 187.641 171.373 187.607C151.628 187.617 131.883 187.586 112.135 187.624Z" fill="#F0F3FD"/>
<path d="M326.735 75.5587C329.766 75.1054 332.831 75.4855 335.848 75.8795C341.132 76.277 346.264 77.7939 351.154 79.7816C355.46 81.6855 359.665 83.8824 363.385 86.7872C364.615 87.774 366.005 88.5656 367.085 89.7338C368.05 90.7416 369.265 91.4669 370.216 92.4921C373.191 95.5887 375.908 98.9293 378.455 102.385C382.099 107.881 385.143 113.76 387.314 119.995C389.066 124.811 389.975 129.877 390.773 134.927C390.79 137.27 391.327 139.572 391.208 141.922C391.846 162.144 383.746 182.55 369.175 196.6C363.977 201.604 357.937 205.726 351.384 208.742C350.778 209.146 349.622 209.314 349.719 210.252C349.751 214.904 349.65 219.559 349.771 224.207C349.796 225.703 349.942 227.213 349.719 228.699C349.622 228.768 349.43 228.911 349.333 228.981C349.663 226.592 349.371 224.183 349.36 221.784C349.35 219.102 349.378 216.417 349.346 213.735C349.28 211.643 349.601 209.565 349.514 207.473C349.51 197.716 349.503 187.959 349.514 178.202C349.569 177.63 349.28 177.152 348.984 176.702C348.921 176.594 348.803 176.378 348.74 176.27C348.141 174.519 346.354 173.348 344.522 173.421C325.888 173.407 307.255 173.397 288.621 173.428C288.625 184.081 288.621 194.738 288.621 205.391C288.688 210.604 288.496 215.828 288.719 221.034L288.19 221.041C267.435 221.139 246.676 221.072 225.921 221.076C225.9 201.286 225.893 181.501 225.925 161.715C245.258 161.704 264.592 161.715 283.926 161.711C285.5 161.694 287.082 161.777 288.656 161.635C288.503 159.438 289.029 156.923 287.507 155.082C285.796 153.088 283.755 151.4 282.017 149.437C281.78 148.352 281.926 147.226 281.895 146.127C282.999 145.988 284.999 146.654 285.249 145.071C285.378 142.152 285.295 139.223 285.291 136.301C285.392 135.495 284.786 134.69 283.922 134.867C271.709 134.86 259.492 134.867 247.275 134.864C250.755 131.586 253.386 127.558 255.932 123.545C255.667 123.447 255.134 123.252 254.87 123.154C261.844 119.625 266.703 112.337 267.257 104.526C267.389 104.993 267.522 105.461 267.661 105.935C269.762 103.351 272.008 100.896 274.409 98.5876C278 94.7901 282.226 91.6587 286.629 88.8655C293.864 84.259 301.883 81.0195 310.07 78.5402C315.504 76.9954 321.078 75.7923 326.735 75.5587ZM312.487 111.943C310.784 112.878 310.411 115.479 311.717 116.891C312.947 118.307 314.379 119.535 315.664 120.898C316.559 121.78 317.368 122.774 318.416 123.482C319.346 124.082 320.478 123.859 321.499 123.691C323.408 124.567 325.986 123.182 325.993 121.003C326.272 118.579 323.756 117.421 322.481 115.769C321.666 116.26 321.053 117 320.398 117.676C320.283 117.561 320.05 117.327 319.935 117.209C320.625 116.574 321.307 115.919 321.868 115.162C320.886 114.252 319.991 113.254 319.012 112.348C318.106 111.514 316.72 111.228 315.595 111.762C314.567 111.612 313.428 111.361 312.487 111.943ZM330.926 139.115C329.017 142.145 330.602 146.717 334.068 147.77C334.907 147.892 335.949 148.436 336.691 147.766C338.687 148.429 341.028 148.122 342.644 146.717C344.323 145.346 345.03 143.052 344.692 140.939C341.136 141.817 337.603 142.801 334.078 143.791C333.556 143.889 333.186 143.753 332.97 143.38C336.823 142.4 340.662 141.353 344.494 140.276C344.017 139.087 343.296 137.961 342.205 137.26C340.599 136.077 338.429 136.032 336.579 136.562C334.374 135.753 332.072 137.277 330.926 139.115ZM306.53 148.861C304.193 151.187 301.817 153.475 299.532 155.853C297.815 157.502 298.065 160.693 300.061 162.011C301.145 162.81 302.545 162.363 303.782 162.587C304.719 162.635 305.795 162.942 306.638 162.37C308.342 161.227 309.575 159.546 311.111 158.203L310.878 157.917C311.007 157.781 311.268 157.509 311.397 157.377L311.655 157.617C312.818 156.421 314.051 155.291 315.18 154.061C316.333 152.812 316.413 150.779 315.483 149.384C314.462 147.728 312.163 147.17 310.439 147.989C309.139 147.215 307.52 147.895 306.53 148.861ZM252.34 177.33C252.302 180.336 252.323 183.345 252.323 186.351C249.317 186.435 246.31 186.383 243.304 186.379C243.2 189.674 243.304 192.977 243.252 196.279C246.269 196.349 249.292 196.206 252.309 196.38C252.327 199.362 252.33 202.343 252.302 205.328C255.605 205.412 258.917 205.443 262.22 205.335C262.202 202.347 262.213 199.358 262.213 196.37C265.233 196.181 268.26 196.478 271.28 196.269C271.246 192.973 271.294 189.681 271.253 186.386C268.239 186.39 265.226 186.41 262.213 186.372C262.199 183.356 262.23 180.339 262.195 177.323C258.91 177.33 255.625 177.323 252.34 177.33Z" fill="#F0F3FD"/>
<path d="M49.0552 195.543C50.2431 189.612 55.5067 184.765 61.5262 184.109C63.5258 184.207 65.5288 184.046 67.5284 184.133C67.6329 191.596 67.5423 199.062 67.5841 206.524C64.4803 205.663 61.7074 203.968 58.7882 202.657C55.7052 200.906 52.5666 199.222 49.6996 197.123C49.5324 197.426 49.3687 197.73 49.205 198.036C49.1457 197.207 49.0796 196.373 49.0552 195.543Z" fill="#F0F3FD"/>
<path d="M89.9275 213.209C90.8472 210.625 93.3692 208.679 96.1456 208.686C99.2773 208.491 102.277 210.852 102.932 213.899C103.492 216.274 102.656 218.9 100.834 220.514C99.2773 221.864 97.0897 222.512 95.0622 222.077C92.7805 221.672 90.781 219.977 90.0216 217.784C89.9136 217.512 89.8126 217.243 89.7115 216.971L89.6349 216.703C89.607 215.531 89.6279 214.346 89.9275 213.209Z" fill="#F0F3FD"/>
<path d="M134.914 17.3309C136.328 17.7215 137.756 18.0772 139.125 18.6107C137.589 21.4318 136.837 24.5911 135.544 27.5203C134.604 29.5567 132.528 31.0074 130.302 31.241C129.532 31.2933 128.605 31.5862 127.992 30.9237C128.016 31.1259 128.048 31.3247 128.086 31.5235C128.811 31.5025 129.539 31.4921 130.267 31.4991C129.253 31.5583 128.239 31.5758 127.229 31.5688C126.626 31.4886 126.031 31.377 125.435 31.2724C127.201 30.8051 128.967 29.9159 129.908 28.2735C131.887 24.7724 132.228 20.4449 134.914 17.3309Z" fill="#DBDEE6"/>
<path d="M117.719 32.0779C119.119 31.921 120.548 31.6595 121.945 32.0151C118.872 32.8904 115.925 34.5782 114.26 37.3958C112.588 37.4899 110.916 37.4411 109.244 37.4306C110.822 34.2957 114.281 32.3499 117.719 32.0779Z" fill="#DBDEE6"/>
<path d="M69.7264 38.7767C71.6563 37.0924 74.363 37.5631 76.7074 37.6154C75.4986 38.3652 74.2202 39.1637 73.5026 40.4365C72.8233 41.5942 72.8058 42.9856 72.7919 44.2898C72.8616 48.2442 72.8651 52.202 72.7745 56.1564C72.9104 68.7065 72.6909 81.2566 72.8407 93.8102C72.7118 102.88 72.9103 111.95 72.7815 121.02C72.8233 140.482 72.7919 159.943 72.7675 179.408C71.0432 179.436 69.3223 179.426 67.598 179.426C67.5457 134.264 67.5945 89.1061 67.5736 43.9446C67.5213 42.0162 68.117 39.9692 69.7264 38.7767Z" fill="#DBDEE6"/>
<path d="M306.53 148.861C307.52 147.895 309.139 147.215 310.439 147.989C308.84 149.147 307.607 150.713 306.154 152.035C307.809 153.9 309.641 155.605 311.397 157.377C311.268 157.509 311.007 157.781 310.878 157.917C309.23 156.1 307.422 154.434 305.712 152.68C304.405 153.649 303.339 154.897 302.19 156.041C300.664 157.544 300.817 160.355 302.496 161.69C303.594 162.771 305.255 162.44 306.638 162.37C305.795 162.942 304.719 162.635 303.782 162.586C302.545 162.363 301.145 162.81 300.061 162.011C298.065 160.693 297.814 157.502 299.532 155.853C301.817 153.475 304.193 151.187 306.53 148.861Z" fill="#DBDEE6"/>
<path d="M54.3605 179.862C55.8584 179.586 57.4678 179.164 58.9239 179.834C54.2038 181.107 49.8842 183.994 47.2367 188.15C45.8886 190.18 45.0177 192.488 44.4777 194.856C43.9413 194.347 44.2513 193.601 44.1085 192.977C43.3665 191.788 41.8337 191.359 41.238 190.047C43.8437 184.935 48.7416 181.072 54.3605 179.862Z" fill="#DBDEE6"/>
<path d="M61.5261 184.109C65.2709 183.652 69.061 184.064 72.8267 183.921C72.6247 187.938 72.9661 191.958 72.7919 195.979C72.7988 201.764 72.757 207.549 72.9208 213.331C71.1651 213.261 69.4059 213.313 67.6502 213.293L67.6293 212.78C69.2387 212.808 70.8481 212.839 72.454 212.717C72.5898 211.253 72.6142 209.781 72.4226 208.32C70.8097 207.807 69.2108 207.256 67.5875 206.775L67.584 206.524C67.5422 199.062 67.6328 191.596 67.5283 184.133C65.5287 184.046 63.5257 184.207 61.5261 184.109Z" fill="#DBDEE6"/>
<path d="M146.796 23.932C145.863 22.6802 145.873 20.8355 146.974 19.6952C147.291 20.6297 147.615 21.6096 147.444 22.6139C147.239 23.0568 147.019 23.4961 146.796 23.932Z" fill="#ECFBFF"/>
<path d="M247.021 21.5817C248.655 21.77 250.693 21.1807 251.954 22.5372C253.298 23.953 252.675 26.5474 250.822 27.1785C249.571 27.454 248.275 27.2552 247.007 27.3076L246.993 26.8786C246.965 26.3347 246.955 25.7872 246.958 25.2397C246.965 24.7201 246.99 24.1971 247.011 23.6775C247.021 23.1335 247.024 22.586 247.024 22.0385L247.021 21.5817Z" fill="#F56161"/>
<path d="M277.697 21.9792L277.93 21.9932C279.171 22.0699 280.418 22.042 281.661 22.1013C281.78 23.6705 281.762 25.2432 281.721 26.8124C280.498 26.8821 279.279 26.8891 278.063 26.9763C276.77 26.502 276.119 24.9189 276.554 23.6461C276.777 22.9975 277.272 22.5023 277.697 21.9792Z" fill="#F56161"/>
<path d="M252.34 177.33C255.625 177.323 258.91 177.33 262.195 177.323C262.23 180.339 262.199 183.356 262.213 186.372C265.226 186.41 268.239 186.39 271.252 186.386C271.294 189.681 271.246 192.973 271.28 196.269C268.26 196.478 265.233 196.181 262.213 196.37C262.213 199.358 262.202 202.347 262.22 205.335C258.917 205.443 255.604 205.412 252.302 205.328C252.33 202.343 252.326 199.362 252.309 196.38C249.292 196.206 246.269 196.349 243.252 196.279C243.304 192.977 243.2 189.674 243.304 186.379C246.31 186.383 249.317 186.435 252.323 186.351C252.323 183.345 252.302 180.336 252.34 177.33Z" fill="#F56161"/>
<path d="M277.93 21.9932C279.216 21.2504 280.79 21.6828 282.201 21.5922C282.201 22.2931 282.177 22.9905 282.187 23.6879C282.191 24.211 282.25 24.7341 282.295 25.2571C282.26 25.6268 282.233 25.9929 282.208 26.3625C282.201 26.5962 282.187 27.0669 282.18 27.3006C280.717 27.2692 279.209 27.5272 277.798 27.0286L278.063 26.9763C279.279 26.8891 280.498 26.8821 281.721 26.8124C281.762 25.2432 281.78 23.6705 281.661 22.1013C280.418 22.042 279.171 22.0699 277.93 21.9932Z" fill="#D17578"/>
<path d="M147.444 22.6139C147.576 22.5755 147.838 22.5058 147.97 22.4709C149.161 23.1684 150.363 23.8518 151.663 24.3365C150.914 24.884 150.046 25.3652 149.085 25.2327C148.148 25.2083 147.455 24.5074 146.796 23.932C147.019 23.4961 147.239 23.0568 147.444 22.6139Z" fill="#D8E0E7"/>
<path d="M239.618 26.0208C241.785 24.5318 244.374 23.6914 247.011 23.6775C246.99 24.1971 246.965 24.7201 246.958 25.2397C245.352 25.299 243.757 25.6198 242.301 26.3033C238.417 28.0712 235.759 32.1477 235.686 36.4159C235.619 39.8228 235.679 43.2332 235.658 46.6401C235.153 46.6331 234.651 46.6436 234.153 46.6785C234.216 43.0937 234.153 39.509 234.181 35.9242C234.289 31.9942 236.462 28.2979 239.618 26.0208Z" fill="#26134F"/>
<path d="M282.187 23.6879C285.465 23.7263 288.74 25.0096 291.07 27.3389C293.484 29.6369 294.94 32.9253 294.968 36.2659C294.986 39.7321 294.94 43.1983 294.993 46.6645C294.449 46.661 293.909 46.6506 293.373 46.6715C293.422 43.1948 293.383 39.7147 293.401 36.2346C293.369 31.2863 289.597 26.7461 284.824 25.5954C284.002 25.3583 283.142 25.299 282.295 25.2571C282.25 24.7341 282.191 24.211 282.187 23.6879Z" fill="#26134F"/>
<path d="M76.7075 37.6154C78.9927 37.3644 81.2953 37.5108 83.591 37.476C92.143 37.4446 100.695 37.5283 109.244 37.4306C110.916 37.4411 112.588 37.4899 114.26 37.3958C112.494 40.3005 112.553 43.8155 111.863 47.0481C111.815 46.9086 111.717 46.6331 111.668 46.4936C104.053 46.4274 96.4382 46.4936 88.8267 46.4622C87.4786 46.2879 86.1548 47.4107 86.2036 48.7881C86.1723 99.7906 86.235 150.797 86.1723 201.803C81.4521 203.72 77.7317 208.086 77.0524 213.205C75.6764 213.244 74.2899 213.15 72.9209 213.331C72.7572 207.549 72.799 201.764 72.792 195.979C72.9662 191.958 72.6248 187.938 72.8268 183.921C72.9697 182.414 72.9662 180.904 72.7676 179.408C72.792 159.943 72.8234 140.482 72.7816 121.02C72.9104 111.95 72.7119 102.88 72.8408 93.8102C72.691 81.2566 72.9104 68.7065 72.7746 56.1564C72.8652 52.202 72.8617 48.2442 72.792 44.2898C72.8059 42.9856 72.8234 41.5942 73.5026 40.4365C74.2203 39.1637 75.4987 38.3652 76.7075 37.6154Z" fill="#A3C5FC"/>
<path d="M184.61 37.4411C196.572 37.5457 208.538 37.4446 220.504 37.4934C223.354 37.4864 226.036 39.9902 225.991 42.8914C225.987 68.6647 225.987 94.4414 225.991 120.218C225.967 122.045 225.963 123.876 225.994 125.707C226.001 128.758 225.984 131.813 226.001 134.864C224.242 134.857 222.486 134.843 220.734 134.906C219.073 135.017 217.387 134.718 215.746 135.042C215.645 135.122 215.443 135.282 215.345 135.363C214.983 137.647 215.289 139.98 215.178 142.281C215.251 143.467 214.934 144.781 215.488 145.876C216.397 146.239 217.425 146.085 218.383 146.166C218.411 147.254 218.703 148.418 218.303 149.465C216.516 151.602 214.23 153.297 212.541 155.532C212.687 138.564 212.562 121.589 212.604 104.62C212.607 86.1316 212.593 67.643 212.611 49.1543C212.76 47.8536 211.82 46.3995 210.409 46.4762C202.585 46.4518 194.758 46.4832 186.933 46.4657C186.31 43.425 186.31 40.1471 184.61 37.4411Z" fill="#A3C5FC"/>
<path d="M209.016 209.945C209.932 209.962 210.844 209.802 211.743 209.631C211.938 215.538 211.684 221.452 211.841 227.36C211.931 229.319 213.381 230.749 214.871 231.823C176.918 231.834 138.962 231.83 101.009 231.834C92.9407 231.868 84.8729 231.736 76.8085 231.903C74.6417 231.516 73.1821 229.413 72.9 227.335C72.8094 225.742 72.8198 224.144 72.7711 222.551C72.785 221.146 72.8512 219.744 72.778 218.342L72.7676 218.018C75.7983 217.861 78.8289 218.087 81.8596 218.052L81.9467 218.276C80.3965 218.213 78.8429 218.209 77.2927 218.3C78.2437 225.027 84.8624 230.254 91.5856 230.003C92.0873 229.94 92.575 229.818 93.0731 229.731C94.7626 229.94 96.4765 230.128 98.1765 229.909C103.262 229.358 107.847 225.818 109.791 221.104C111.295 217.606 111.257 213.547 109.926 210.008C115.194 209.847 120.475 209.952 125.745 209.921C153.502 209.934 181.259 209.875 209.016 209.945Z" fill="#A3C5FC"/>
<path d="M119.311 85.6504C122.279 84.9425 125.606 85.755 127.748 87.9728C130.991 91.0868 131.169 96.7359 128.145 100.056C125.442 103.306 120.321 104.007 116.786 101.736C114.121 100.084 112.466 96.9417 112.682 93.7963C112.759 89.9988 115.639 86.5361 119.311 85.6504Z" fill="#8671F3"/>
<path d="M107.039 114.102C110.104 109.188 115.793 106.047 121.589 106.165C126.769 106.113 131.859 108.669 135.008 112.77C137.68 116.156 138.868 120.556 138.54 124.835C127.18 124.842 115.821 124.87 104.461 124.821C104.454 123.747 104.416 122.673 104.419 121.602C104.809 118.966 105.572 116.347 107.039 114.102Z" fill="#8671F3"/>
<path d="M336.579 136.562C338.429 136.032 340.599 136.077 342.205 137.26C343.296 137.961 344.017 139.087 344.494 140.276C340.662 141.353 336.823 142.4 332.97 143.38C332.375 140.583 334.022 137.709 336.579 136.562Z" fill="#8671F3"/>
<path d="M334.078 143.791C337.603 142.801 341.136 141.817 344.692 140.939C345.03 143.052 344.323 145.346 342.644 146.717C341.028 148.122 338.687 148.429 336.691 147.766C335.095 147.044 333.681 145.758 333.207 144.025C333.427 143.965 333.859 143.847 334.078 143.791Z" fill="#8671F3"/>
<path d="M223.716 146.12C243.109 146.099 262.505 146.075 281.895 146.127C281.926 147.226 281.78 148.352 282.017 149.437C283.755 151.4 285.796 153.088 287.507 155.082C289.029 156.923 288.503 159.438 288.656 161.635C287.082 161.777 285.5 161.694 283.926 161.711C264.592 161.715 245.258 161.704 225.925 161.715C225.893 181.501 225.9 201.286 225.921 221.076C246.676 221.072 267.435 221.139 288.189 221.041C288.266 223.039 288.322 225.044 288.242 227.046C288.2 229.794 285.563 232.151 282.86 232.067C266.605 232.043 250.355 232.067 234.101 232.06C229.952 232.109 225.796 231.938 221.65 232.154C219.038 231.816 216.92 229.316 217.045 226.676C216.972 204.01 217.07 181.34 217.003 158.674C216.993 157.356 217.303 155.996 218.198 154.988C219.86 153.042 221.894 151.438 223.539 149.478C223.953 148.429 223.678 147.226 223.716 146.12Z" fill="#8671F3"/>
<path d="M93.7907 201.028C96.7204 200.606 99.7859 200.906 102.475 202.186C105.844 203.713 108.495 206.615 109.926 210.008C111.257 213.547 111.295 217.606 109.791 221.104C107.847 225.818 103.262 229.358 98.1765 229.909C96.4765 230.128 94.7626 229.94 93.0731 229.731C89.2029 228.737 85.6741 226.258 83.7094 222.739C82.8838 221.355 82.4449 219.796 81.9467 218.276L81.8596 218.052C84.5768 217.665 87.3044 218.112 90.0215 217.784C90.781 219.977 92.7805 221.672 95.0622 222.077C97.0896 222.512 99.2773 221.864 100.834 220.514C102.656 218.9 103.492 216.274 102.932 213.899C102.277 210.852 99.2773 208.491 96.1456 208.686C93.3692 208.679 90.8471 210.625 89.9275 213.209C87.2417 213.153 84.5559 213.174 81.8701 213.167C82.5006 210.05 83.9254 207.065 86.2558 204.861C88.332 202.884 90.99 201.59 93.7907 201.028Z" fill="#8671F3"/>
<path d="M152.21 103.658C161.507 103.64 170.805 103.665 180.106 103.647C180.148 104.306 180.161 104.965 180.144 105.628C170.826 105.691 161.511 105.656 152.192 105.642C152.171 104.979 152.178 104.317 152.21 103.658Z" fill="#D3D2E4"/>
<path d="M152.241 114.82C166.022 114.806 179.799 114.803 193.58 114.824C193.59 115.479 193.604 116.138 193.625 116.801C188.546 117.01 183.453 116.815 178.367 116.898C169.634 116.829 160.897 116.965 152.164 116.832C152.154 116.159 152.182 115.49 152.241 114.82Z" fill="#D3D2E4"/>
<path d="M312.487 111.943C313.428 111.361 314.567 111.612 315.594 111.762C314.49 112.316 313.616 113.443 313.682 114.722C313.56 116.473 315.128 117.554 316.18 118.701C316.598 119.022 316.963 119.747 317.594 119.486C318.437 118.795 319.123 117.938 319.935 117.209C320.05 117.327 320.283 117.561 320.398 117.676C319.541 118.541 318.684 119.402 317.852 120.291C319.005 121.487 320.081 122.795 321.499 123.691C320.478 123.859 319.346 124.082 318.416 123.482C317.368 122.774 316.559 121.78 315.664 120.898C314.379 119.535 312.947 118.307 311.717 116.891C310.411 115.479 310.784 112.878 312.487 111.943Z" fill="#DBDFE7"/>
<path d="M215.746 135.042C217.387 134.718 219.073 135.017 220.734 134.906C220.48 135.596 220.285 136.315 220.33 137.061C220.358 139.495 220.334 141.925 220.337 144.359C220.372 144.921 220.281 145.768 220.964 145.984C221.866 146.162 222.796 146.106 223.716 146.12C223.678 147.226 223.953 148.429 223.538 149.478C221.894 151.438 219.86 153.042 218.198 154.988C217.303 155.996 216.993 157.356 217.003 158.674C217.07 181.34 216.972 204.01 217.045 226.676C216.92 229.316 219.038 231.816 221.65 232.154L221.368 232.172C219.111 232.322 216.854 232.221 214.6 232.154C168.746 232.151 122.892 232.158 77.0384 232.154L76.8085 231.903C84.8729 231.736 92.9407 231.868 101.009 231.834C138.962 231.83 176.918 231.834 214.871 231.823C213.38 230.749 211.931 229.319 211.841 227.36C211.684 221.452 211.938 215.538 211.743 209.631C212.659 208.4 212.37 206.827 212.395 205.405C212.391 190.292 212.395 175.178 212.391 160.065C212.37 158.552 212.353 157.035 212.541 155.532C214.23 153.297 216.516 151.602 218.303 149.465C218.703 148.418 218.411 147.254 218.383 146.166C217.425 146.086 216.397 146.239 215.488 145.876C214.934 144.781 215.251 143.467 215.178 142.281C215.289 139.98 214.983 137.647 215.345 135.363C215.443 135.282 215.645 135.122 215.746 135.042Z" fill="#96B4E7"/>
<path d="M77.0524 213.205C77.7317 208.086 81.4521 203.72 86.1723 201.803C86.1757 202.821 86.2036 203.842 86.2559 204.861C83.9254 207.065 82.5006 210.05 81.8701 213.167C80.2642 213.188 78.6583 213.177 77.0524 213.205Z" fill="#96B4E7"/>
<path d="M77.2927 218.3C78.8429 218.209 80.3966 218.213 81.9467 218.276C82.4449 219.796 82.8838 221.355 83.7094 222.739C85.6741 226.258 89.2029 228.737 93.0731 229.731C92.575 229.818 92.0873 229.94 91.5857 230.003C84.8624 230.254 78.2437 225.027 77.2927 218.3Z" fill="#96B4E7"/>
<path d="M220.734 134.906C222.486 134.843 224.242 134.857 226.001 134.864C233.09 134.864 240.183 134.867 247.275 134.864C259.492 134.867 271.709 134.86 283.922 134.867C284.786 134.69 285.392 135.495 285.291 136.301C285.295 139.223 285.378 142.152 285.249 145.071C284.999 146.654 282.999 145.988 281.895 146.127C262.505 146.075 243.109 146.099 223.716 146.12C222.797 146.106 221.866 146.162 220.964 145.984C220.281 145.768 220.372 144.921 220.337 144.359C220.334 141.925 220.358 139.495 220.33 137.061C220.285 136.315 220.48 135.596 220.734 134.906Z" fill="#7045EC"/>
<path d="M330.925 139.115C332.071 137.277 334.374 135.753 336.579 136.562C334.022 137.709 332.375 140.583 332.97 143.38C333.186 143.753 333.555 143.889 334.078 143.791C333.859 143.847 333.427 143.965 333.207 144.025C333.681 145.758 335.095 147.044 336.691 147.766C335.949 148.436 334.907 147.892 334.068 147.77C330.601 146.717 329.016 142.145 330.925 139.115Z" fill="#DBDEE7"/>
<path d="M100.963 150.72C102.367 150.755 103.774 150.769 105.175 150.65C105.105 152.087 105.098 153.527 105.143 154.967L104.778 154.894C104.527 153.663 104.868 152.348 104.736 151.089C103.534 150.929 102.325 150.978 101.13 151.159C101.089 151.051 101.005 150.831 100.963 150.72Z" fill="#32BEB2"/>
<path d="M112.191 151.783C139.317 151.776 166.447 151.756 193.577 151.79C193.584 152.436 193.597 153.081 193.615 153.729C174.483 153.855 155.345 153.733 136.21 153.785C128.191 153.75 120.172 153.82 112.152 153.757C112.086 153.098 112.083 152.436 112.191 151.783Z" fill="#D4D1E4"/>
<path d="M112.111 176.43C131.981 176.354 151.854 176.42 171.724 176.392C179.019 176.448 186.313 176.315 193.604 176.455C193.598 177.107 193.598 177.762 193.604 178.418C166.471 178.498 139.334 178.435 112.198 178.449C112.065 177.783 112.058 177.103 112.111 176.43Z" fill="#D4D1E4"/>
<path d="M112.135 187.624C131.883 187.586 151.628 187.617 171.373 187.606C178.786 187.641 186.198 187.537 193.611 187.662C193.601 188.307 193.594 188.956 193.591 189.608C166.454 189.622 139.317 189.608 112.18 189.605C112.079 188.946 112.079 188.283 112.135 187.624Z" fill="#D4D1E4"/>
<path d="M100.768 163.964C102.273 163.859 103.789 163.797 105.293 163.967C105.339 165.481 105.325 166.998 105.297 168.515C103.82 168.539 102.346 168.49 100.873 168.567C100.66 167.04 100.824 165.498 100.768 163.964Z" fill="#F36161"/>
<path d="M100.779 186.327C102.301 186.362 103.834 186.219 105.353 186.421C105.286 187.882 105.328 189.347 105.307 190.811C103.83 190.877 102.35 190.801 100.873 190.884C100.664 189.374 100.813 187.844 100.779 186.327Z" fill="#F36161"/>
<path d="M112.111 165.247C132.329 165.23 152.548 165.244 172.762 165.24C179.719 165.303 186.683 165.125 193.636 165.317C193.479 165.899 193.977 167.235 193.002 167.169C166.05 167.141 139.098 167.214 112.149 167.134C112.111 166.503 112.097 165.875 112.111 165.247Z" fill="#D2D2E4"/>
<path d="M348.74 176.27C348.803 176.378 348.921 176.594 348.984 176.702C349.151 191.84 349.005 206.988 349.05 222.132C348.994 224.514 349.203 226.906 348.904 229.281C348.855 229.365 348.758 229.529 348.705 229.612C348.479 226.659 348.664 223.695 348.604 220.734C348.618 210.039 348.611 199.344 348.622 188.653C348.705 184.524 348.434 180.385 348.74 176.27Z" fill="#40B9AF"/>
<path d="M348.984 176.702C349.28 177.152 349.569 177.63 349.514 178.202C349.503 187.959 349.51 197.716 349.514 207.473C349.601 209.565 349.28 211.643 349.346 213.735C349.378 216.417 349.35 219.102 349.36 221.784C349.371 224.183 349.663 226.592 349.332 228.981L348.904 229.281C349.204 226.906 348.994 224.514 349.05 222.132C349.005 206.988 349.151 191.84 348.984 176.702Z" fill="#C0FFFF"/>
<path d="M305.729 180.852C306.913 179.398 309.031 178.927 310.78 179.506C311.195 179.705 311.815 179.942 311.696 180.549C310.759 180.05 309.704 179.544 308.62 179.788C306.941 180.155 305.388 181.623 305.415 183.432C305.408 185.117 305.161 186.86 305.708 188.489C308.136 188.457 310.564 188.416 312.992 188.506L313.448 188.538L313.191 188.848C310.595 188.904 307.997 188.719 305.408 188.932L305.388 189.507C305.468 191.397 305.144 193.353 305.663 195.201C306.579 197.552 309.672 198.308 311.675 196.84C311.818 197.468 311.097 197.754 310.634 197.907C309.387 198.117 307.958 198.221 306.865 197.472C305.663 196.795 305.025 195.466 304.632 194.204C304.503 191.08 304.666 187.945 304.572 184.817C304.437 183.398 304.987 182.027 305.729 180.852Z" fill="#37B28A"/>
<path d="M317.824 182.752C318.496 180.308 321.22 178.505 323.711 179.489C322.865 179.572 321.948 179.401 321.189 179.855C320.673 180.113 320.182 180.413 319.736 180.772C319.12 181.197 318.649 181.821 318.569 182.582C318.231 185.295 318.737 188.025 318.486 190.741C318.496 192.209 318.252 193.747 318.775 195.16C318.904 195.522 319.106 195.854 319.311 196.188L318.789 196.446C318.447 195.833 317.995 195.261 317.827 194.574C317.66 192.028 317.942 189.476 317.799 186.927C317.799 185.535 317.723 184.14 317.824 182.752Z" fill="#3AB589"/>
<path d="M290.544 183.408C290.537 181.372 292.544 179.241 294.637 179.774C293.833 180.217 293.08 180.803 292.704 181.668C292.666 181.741 292.589 181.888 292.547 181.961C291.722 183.983 292.342 186.271 292.171 188.405C292.175 188.572 292.178 188.911 292.178 189.078C294.724 189.096 297.274 189.064 299.824 189.061V189.165C297.337 189.13 294.853 189.169 292.37 189.151C292.401 191.198 292.178 193.27 292.492 195.303C292.962 196.157 293.672 196.889 294.55 197.325L294.254 197.771C292.286 197.615 290.516 195.916 290.527 193.89C290.52 190.396 290.523 186.902 290.544 183.408Z" fill="#19BAAB"/>
<path d="M329.866 183.432C329.772 181.448 331.81 179.304 333.862 179.97C332.928 180.576 331.977 181.347 331.727 182.491C330.337 184.765 331.789 187.579 331.27 190.061C331.086 192.471 330.8 195.477 332.89 197.189C331.862 197.771 331.11 196.732 330.511 196.056C329.835 195.254 329.87 194.155 329.859 193.172C329.877 189.925 329.863 186.679 329.866 183.432Z" fill="#19BAAB"/>
<path d="M290.506 212.013C290.332 209.603 292.934 207.361 295.254 208.055C293.899 208.515 292.586 209.527 292.359 211.022C292.206 212.912 292.363 214.816 292.286 216.71C292.282 216.877 292.283 217.205 292.279 217.372C292.317 219.078 292.269 220.786 292.314 222.492C292.303 223.914 293.366 225.159 294.623 225.703C295.55 226.034 296.56 225.892 297.518 225.808C297.553 226.585 296.588 226.345 296.111 226.456C293.92 226.366 291.276 225.504 290.603 223.165C290.37 219.458 290.572 215.73 290.506 212.013Z" fill="#19BAAB"/>
<path d="M331.998 208.505C332.796 208.107 333.75 207.595 334.646 208.048C333.127 208.48 331.758 209.708 331.594 211.347C331.43 213.118 331.542 214.907 331.556 216.686L331.559 216.926C334.012 216.884 336.478 216.783 338.924 216.951L339.08 217.331C336.544 217.379 334.005 217.243 331.472 217.411C331.632 219.221 331.371 221.044 331.626 222.847C331.81 224.061 332.681 224.971 333.639 225.661L333.813 226.017C331.751 226.16 329.72 224.235 329.866 222.146C329.852 218.649 329.898 215.148 329.863 211.65C329.835 210.276 330.803 209.084 331.998 208.505Z" fill="#19BAAB"/>
<path d="M86.9211 213.868C87.6527 213.819 88.4016 213.627 89.1227 213.847C89.4746 214.743 89.2203 215.796 89.6348 216.703L89.7114 216.971C89.6592 217.128 89.5547 217.435 89.5024 217.592C88.7186 217.658 87.9279 217.624 87.1441 217.557C86.7365 216.365 86.74 215.099 86.9211 213.868Z" fill="#19BAAB"/>
<path d="M294.637 179.774C296.63 179.164 298.922 179.977 299.856 181.888C300.026 184.057 299.967 186.236 299.908 188.409C297.334 188.558 294.745 188.527 292.171 188.405C292.342 186.271 291.722 183.983 292.547 181.961C292.544 183.931 292.408 185.908 292.617 187.875C294.947 187.879 297.274 187.844 299.605 187.885C299.605 185.668 300.302 183.021 298.689 181.187C297.846 180.374 296.553 179.806 295.386 180.193C294.404 180.507 293.561 181.12 292.704 181.668C293.08 180.803 293.833 180.217 294.637 179.774Z" fill="#BBCF65"/>
<path d="M295.386 180.193C296.553 179.806 297.846 180.374 298.689 181.187C300.302 183.021 299.605 185.668 299.605 187.886C297.274 187.844 294.947 187.879 292.617 187.875C292.408 185.908 292.544 183.931 292.547 181.961C292.589 181.888 292.666 181.741 292.704 181.668C293.561 181.121 294.404 180.507 295.386 180.193Z" fill="#FEC430"/>
<path d="M305.416 183.432C305.388 181.623 306.941 180.155 308.62 179.788C309.704 179.544 310.759 180.05 311.696 180.549C312.208 180.95 312.505 181.546 312.94 182.024C313.278 184.175 313.379 186.351 312.992 188.506C310.564 188.416 308.136 188.457 305.708 188.489C305.161 186.86 305.409 185.117 305.416 183.432Z" fill="#FEC430"/>
<path d="M319.736 180.772C320.182 180.413 320.673 180.113 321.189 179.855C321.879 179.638 322.614 179.729 323.331 179.757C324.341 180.263 325.432 180.772 325.881 181.909L325.784 182.334C325.435 184.144 326.017 185.999 325.641 187.819C323.415 187.861 321.185 187.788 318.963 187.885C318.977 185.504 318.468 182.941 319.736 180.772Z" fill="#FEC430"/>
<path d="M333.862 179.97C334.708 179.611 335.656 179.729 336.555 179.771C337.729 180.364 339.108 181.263 339.143 182.735C339.181 184.59 339.213 186.452 339.101 188.307C336.68 187.969 334.224 188.266 331.789 188.144C331.74 186.257 331.807 184.374 331.727 182.491C331.977 181.347 332.928 180.577 333.862 179.97Z" fill="#FEC430"/>
<path d="M292.37 189.151C294.853 189.169 297.337 189.13 299.824 189.165C299.776 191.08 299.957 193.008 299.741 194.912C299.086 197.018 296.578 198.078 294.55 197.325C293.672 196.889 292.962 196.157 292.492 195.303C292.178 193.27 292.401 191.198 292.37 189.151Z" fill="#FEC430"/>
<path d="M305.388 189.507C307.944 189.427 310.501 189.472 313.058 189.465C313.1 191.174 313.131 192.886 313.03 194.591C312.982 195.463 312.316 196.112 311.818 196.767L311.675 196.84C309.672 198.308 306.579 197.552 305.663 195.201C305.144 193.353 305.468 191.397 305.388 189.507Z" fill="#FEC430"/>
<path d="M318.89 189.49C321.161 189.458 323.432 189.486 325.704 189.472C326.052 191.334 325.756 193.235 325.871 195.114C325.829 196.352 324.589 196.99 323.652 197.538C322.088 197.775 320.255 197.639 319.311 196.188C319.106 195.854 318.904 195.522 318.775 195.16C318.956 193.273 318.872 191.38 318.89 189.49Z" fill="#FEC430"/>
<path d="M331.751 189.427C333.165 188.953 334.681 189.305 336.144 189.2C337.13 189.277 338.279 188.921 339.122 189.598C338.997 191.376 339.265 193.179 338.969 194.947C338.533 196.031 337.711 197.078 336.513 197.343C334.59 198.047 332.082 196.683 331.845 194.591C331.667 192.876 331.828 191.146 331.751 189.427Z" fill="#FEC430"/>
<path d="M318.569 182.582C318.649 181.821 319.12 181.197 319.736 180.772C318.468 182.941 318.977 185.504 318.963 187.885L318.928 188.318C318.862 188.489 318.733 188.83 318.667 188.998C321.165 189.008 323.666 188.963 326.163 189.022C326.299 190.972 326.24 192.928 326.188 194.881L325.871 195.114C325.756 193.235 326.052 191.334 325.704 189.472C323.432 189.486 321.161 189.458 318.89 189.49C318.872 191.38 318.956 193.273 318.775 195.16C318.252 193.747 318.496 192.209 318.486 190.741C318.737 188.025 318.231 185.295 318.569 182.582Z" fill="#B7D26A"/>
<path d="M299.856 181.888C300.643 182.937 300.361 184.315 300.41 185.535C300.326 188.3 300.462 191.069 300.371 193.838C300.347 195.205 299.696 196.551 298.529 197.301C297.323 198.274 295.665 197.981 294.254 197.771L294.55 197.325C296.578 198.078 299.086 197.018 299.741 194.912C299.957 193.008 299.776 191.08 299.824 189.165V189.061C297.275 189.064 294.725 189.095 292.178 189.078C292.178 188.911 292.175 188.572 292.171 188.405C294.745 188.527 297.334 188.558 299.908 188.409C299.967 186.236 300.027 184.057 299.856 181.888Z" fill="#5ABF7F"/>
<path d="M325.784 182.334L326.129 182.031C326.111 184.098 326.456 186.229 326.014 188.255C323.669 188.565 321.283 188.388 318.928 188.318L318.963 187.885C321.185 187.788 323.415 187.861 325.641 187.819C326.017 185.999 325.435 184.144 325.784 182.334Z" fill="#CFD460"/>
<path d="M326.129 182.031C326.686 182.596 326.512 183.401 326.54 184.112C326.505 187.021 326.505 189.929 326.536 192.837C326.484 193.772 326.7 194.79 326.209 195.644C326.202 195.456 326.195 195.072 326.188 194.881C326.24 192.928 326.299 190.972 326.163 189.022C323.666 188.963 321.165 189.008 318.667 188.998C318.733 188.83 318.862 188.489 318.928 188.318C321.283 188.388 323.669 188.565 326.014 188.255C326.456 186.229 326.111 184.098 326.129 182.031Z" fill="#71B054"/>
<path d="M339.38 188.349C339.526 186.358 339.14 184.287 339.544 182.341C339.669 184.482 339.718 186.637 339.474 188.771C339.484 190.808 339.683 192.865 339.425 194.895C339.223 196.269 338.063 197.266 336.861 197.799C335.534 197.869 333.973 198.165 332.89 197.189C330.8 195.477 331.086 192.471 331.27 190.061C331.789 187.579 330.337 184.765 331.727 182.491C331.807 184.374 331.741 186.257 331.789 188.144C334.224 188.266 336.68 187.969 339.101 188.307L339.38 188.349ZM331.751 189.427C331.828 191.146 331.667 192.876 331.845 194.591C332.082 196.683 334.59 198.047 336.513 197.343C337.711 197.078 338.533 196.031 338.969 194.947C339.265 193.179 338.997 191.376 339.122 189.598C338.279 188.921 337.13 189.277 336.144 189.2C334.681 189.305 333.165 188.953 331.751 189.427Z" fill="#71B054"/>
<path d="M305.409 188.932C307.997 188.719 310.596 188.904 313.191 188.848L313.274 189.469L313.058 189.465C310.502 189.472 307.945 189.427 305.388 189.507L305.409 188.932Z" fill="#B3DD78"/>
<path d="M86.1722 201.803C88.6037 200.885 91.2268 200.708 93.7907 201.028C90.99 201.59 88.332 202.884 86.2558 204.861C86.2036 203.842 86.1757 202.821 86.1722 201.803Z" fill="#DBDDEA"/>
<path d="M303.796 211.005C304.371 209.136 306.495 207.302 308.502 208.034C306.952 208.442 305.551 209.708 305.388 211.368C305.262 213.146 305.367 214.932 305.356 216.713C305.356 216.867 305.356 217.17 305.356 217.32C305.565 219.719 304.674 222.478 306.203 224.573C307.234 226.007 309.15 226.09 310.735 225.769L310.603 226.223C308.523 226.837 306.029 226.069 304.534 224.483C303.479 223.116 303.698 221.282 303.691 219.667C303.771 216.78 303.573 213.882 303.796 211.005Z" fill="#1ABAAB"/>
<path d="M316.709 211.671C316.758 209.418 319.291 207.487 321.422 208.065C319.984 208.55 318.625 209.708 318.538 211.322C318.441 213.118 318.535 214.918 318.517 216.717C321.088 216.741 323.662 216.689 326.233 216.734C326.885 217.257 326.637 218.258 326.735 219.001C326.662 220.532 326.926 222.139 326.505 223.621C326.352 223.674 326.042 223.775 325.888 223.827C326.606 221.759 326.052 219.534 326.303 217.397C323.725 217.236 321.14 217.432 318.566 217.278C318.472 219.001 318.489 220.727 318.517 222.453C318.507 223.677 319.291 224.776 320.29 225.421C321.28 226.066 322.513 225.919 323.628 225.829C323.711 226.627 322.677 226.404 322.196 226.453C320.931 226.334 319.691 225.975 318.535 225.466C317.047 224.601 316.626 222.694 316.667 221.093C316.755 217.951 316.587 214.809 316.709 211.671Z" fill="#1ABAAB"/>
<path d="M339.157 210.59C339.289 210.681 339.554 210.862 339.686 210.953C339.774 212.686 339.868 214.45 339.659 216.176C339.565 216.312 339.369 216.581 339.275 216.713C339.14 214.673 339.317 212.626 339.157 210.59Z" fill="#3EB8AC"/>
<path d="M72.9208 213.331C74.2898 213.15 75.6763 213.244 77.0523 213.205C78.6582 213.177 80.2641 213.188 81.87 213.167C84.5558 213.174 87.2416 213.153 89.9274 213.209C89.6278 214.346 89.6069 215.531 89.6348 216.703C89.2203 215.796 89.4746 214.743 89.1227 213.847C88.4016 213.627 87.6527 213.819 86.9211 213.868C84.8867 213.885 82.8489 213.798 80.818 213.69C74.3212 213.526 67.8174 213.938 61.3241 213.613C65.1804 213.272 69.0819 213.816 72.9208 213.331Z" fill="#41B7C4"/>
<path d="M288.189 221.041L288.719 221.034C288.9 222.08 288.928 223.147 288.907 224.214C288.872 225.703 289.074 227.276 288.412 228.667C287.939 229.992 286.845 230.913 285.922 231.917C289.297 232.259 292.707 231.98 296.097 232.067C312.741 232.078 329.382 232.05 346.026 232.085C345.95 232.119 345.8 232.193 345.723 232.228C325.292 232.294 304.855 232.161 284.424 232.294C263.407 232.109 242.384 232.353 221.368 232.172L221.65 232.154C225.796 231.938 229.952 232.109 234.101 232.06C250.355 232.067 266.605 232.043 282.86 232.067C285.563 232.151 288.2 229.794 288.242 227.046C288.322 225.044 288.266 223.039 288.189 221.041Z" fill="#6396C2"/>
<path d="M67.619 223.189C69.3189 222.83 71.0642 222.868 72.7711 222.551C72.8199 224.144 72.8094 225.742 72.9 227.335C73.1822 229.413 74.6418 231.516 76.8085 231.903L77.0384 232.154C75.3211 232.2 73.5828 232.395 71.8793 232.081C69.8449 231.666 68.1136 229.971 67.7374 227.914C67.4726 226.352 67.605 224.762 67.619 223.189Z" fill="#DDDDDF"/>
<path d="M51.6747 225.065C56.9837 224.399 62.2821 223.517 67.6189 223.189C67.605 224.762 67.4726 226.352 67.7373 227.914C68.1136 229.971 69.8449 231.666 71.8793 232.081C73.5827 232.395 75.321 232.2 77.0384 232.154C122.892 232.158 168.746 232.151 214.6 232.154C216.854 232.221 219.111 232.322 221.368 232.172C242.384 232.353 263.408 232.109 284.424 232.294C285.789 232.922 287.315 232.674 288.771 232.702C307.234 232.723 325.697 232.684 344.159 232.716C344.727 232.758 345.232 232.482 345.724 232.228C345.8 232.193 345.95 232.119 346.027 232.085C347.207 231.642 348.183 230.766 348.705 229.612C348.758 229.529 348.855 229.365 348.904 229.281L349.332 228.981C349.43 228.911 349.622 228.768 349.719 228.699C349.942 227.213 349.796 225.703 349.771 224.207C356.091 224.96 362.431 225.916 368.537 227.754C369.99 228.207 371.648 228.723 372.442 230.146C372.54 230.993 372.007 231.827 371.226 232.144C368.924 233.298 366.412 233.964 363.911 234.529C353.265 236.764 342.407 237.667 331.605 238.741C326.616 239.052 321.642 239.512 316.66 239.91C314.086 239.822 311.55 240.328 308.979 240.283C306.558 240.652 304.113 240.551 301.681 240.712C298.873 241.141 296.013 240.774 293.202 241.144C290.809 241.454 288.388 241.196 285.991 241.42C282.4 241.876 278.759 241.458 275.168 241.883C272.158 242.169 269.121 241.789 266.132 242.284C261.607 242.319 257.081 242.392 252.556 242.406C244.098 243.066 235.581 242.392 227.123 243.024C211.569 243.065 196.019 243.052 180.465 243.013C173.856 242.522 167.213 242.856 160.591 242.664C158.49 242.825 156.425 242.319 154.328 242.396C150.956 242.358 147.58 242.389 144.211 242.284C140.397 241.835 136.544 242.148 132.719 241.915C129.131 241.409 125.484 241.911 121.892 241.423C119.513 241.158 117.106 241.5 114.73 241.141C112.417 240.792 110.066 241.144 107.753 240.792C105.673 240.492 103.559 240.788 101.479 240.471C99.0996 240.122 96.6751 240.391 94.2958 240.039C78.6303 238.975 62.9196 237.845 47.4074 235.261C43.6313 234.344 39.6252 233.915 36.2253 231.889C35.6435 231.645 35.445 231.018 35.1593 230.515C35.6714 229.005 37.3156 228.538 38.6394 227.984C42.8475 226.481 47.3029 225.881 51.6747 225.065Z" fill="#F2F1F6"/>
<path d="M334.015 226.115C334.977 225.958 335.952 225.975 336.917 226.125C336.011 226.575 334.911 226.592 334.015 226.115Z" fill="#39BBAF"/>
<path d="M284.424 232.294C304.855 232.161 325.293 232.294 345.723 232.228C345.232 232.482 344.727 232.758 344.159 232.716C325.697 232.684 307.234 232.723 288.771 232.702C287.315 232.674 285.789 232.922 284.424 232.294Z" fill="#BEFFFF"/>
</g>
<defs>
<clipPath id="clip0_51_93">
<rect width="402" height="257" fill="white"/>
</clipPath>
</defs>
</svg>
