<svg width="33" height="33" viewBox="0 0 33 33" fill="none" xmlns="http://www.w3.org/2000/svg">
<path d="M27.9533 22.6881L21.7638 16.4993L27.9513 10.3112C28.0123 10.2502 28.0606 10.1779 28.0936 10.0982C28.1266 10.0186 28.1436 9.93322 28.1436 9.84702C28.1436 9.76082 28.1266 9.67547 28.0936 9.59583C28.0606 9.51619 28.0123 9.44383 27.9513 9.38288L23.6168 5.04734C23.4936 4.92421 23.3266 4.85504 23.1524 4.85504C22.9783 4.85504 22.8113 4.92421 22.6881 5.04734L16.4996 11.2355L10.3121 5.04734C10.066 4.80083 9.63003 4.80083 9.38352 5.04734L5.04798 9.38222C4.92501 9.50545 4.85596 9.67244 4.85596 9.84653C4.85596 10.0206 4.92501 10.1876 5.04798 10.3108L11.2365 16.4993L5.04699 22.6885C4.9241 22.8118 4.8551 22.9787 4.8551 23.1528C4.8551 23.3269 4.9241 23.4938 5.04699 23.6171L9.38187 27.9523C9.4428 28.0134 9.51518 28.0618 9.59485 28.0948C9.67452 28.1279 9.75993 28.1449 9.84618 28.1449C9.93243 28.1449 10.0178 28.1279 10.0975 28.0948C10.1772 28.0618 10.2496 28.0134 10.3105 27.9523L16.4996 21.7632L22.6891 27.952C22.8175 28.08 22.9848 28.1444 23.1534 28.1444C23.3221 28.1444 23.4897 28.08 23.6181 27.952L27.9536 23.6168C28.0767 23.4936 28.1458 23.3265 28.1457 23.1524C28.1457 22.9782 28.0765 22.8113 27.9533 22.6881Z" fill="white"/>
</svg>
