<svg width="216" height="108" viewBox="0 0 216 108" fill="none" xmlns="http://www.w3.org/2000/svg">
<path fill-rule="evenodd" clip-rule="evenodd" d="M202.338 69.2131C206.635 79.6647 209.16 90.7454 209.823 102C209.941 103.995 210 105.996 210 108H216C216 105.996 215.944 103.996 215.833 102C215.158 89.8682 212.44 77.9223 207.779 66.6702C202.351 53.567 194.396 41.6612 184.368 31.6325C174.339 21.6037 162.433 13.6485 149.33 8.22101C136.227 2.7935 122.183 0 108 0C93.8172 0 79.7733 2.7935 66.6702 8.22101C53.567 13.6485 41.6612 21.6037 31.6325 31.6325C21.6037 41.6612 13.6485 53.567 8.22101 66.6702C3.56022 77.9223 0.84181 89.8682 0.166789 102C0.0557464 103.996 0 105.996 0 108H6C6 105.996 6.05904 103.995 6.17662 102C6.84502 90.6567 9.40512 79.4903 13.7643 68.9663C18.8903 56.5911 26.4035 45.3467 35.8751 35.8751C45.3467 26.4035 56.5911 18.8903 68.9663 13.7643C81.3415 8.63831 94.6052 6 108 6C121.395 6 134.658 8.63831 147.034 13.7643C159.409 18.8903 170.653 26.4035 180.125 35.8751C189.596 45.3467 197.11 56.5911 202.236 68.9663C202.27 69.0485 202.304 69.1308 202.338 69.2131Z" fill="white"/>
</svg>
