<svg width="32" height="110" viewBox="0 0 32 110" fill="none" xmlns="http://www.w3.org/2000/svg">
<mask id="path-1-inside-1_51_295" fill="white">
<path d="M0 0H32V97.5C32 104.404 26.4036 110 19.5 110H12.5C5.59644 110 0 104.404 0 97.5V0Z"/>
</mask>
<path d="M0 0H32H0ZM33 97.5C33 104.956 26.9558 111 19.5 111H12.5C5.04416 111 -1 104.956 -1 97.5H1C1 103.851 6.14873 109 12.5 109H19.5C25.8513 109 31 103.851 31 97.5H33ZM12.5 111C5.04416 111 -1 104.956 -1 97.5V0H1V97.5C1 103.851 6.14873 109 12.5 109V111ZM33 0V97.5C33 104.956 26.9558 111 19.5 111V109C25.8513 109 31 103.851 31 97.5V0H33Z" fill="#D9D9D9" mask="url(#path-1-inside-1_51_295)"/>
</svg>
