<svg width="50" height="50" viewBox="0 0 50 50" fill="none" xmlns="http://www.w3.org/2000/svg">
<path fill-rule="evenodd" clip-rule="evenodd" d="M24.7517 47.9987C24.9165 48.0005 25.0815 48.0005 25.2464 47.9987C37.8355 47.8666 48 37.6203 48 25C48 12.9446 38.725 3.05543 26.9216 2.07913L27.0886 0.0874176L27.0905 0.0875806C27.7567 0.143486 28.4187 0.225934 29.0749 0.334349C33.1844 1.01326 37.0705 2.71045 40.372 5.28457C44.2011 8.27015 47.078 12.3062 48.6512 16.8998C50.2245 21.4934 50.426 26.4457 49.2312 31.1519C48.0363 35.8581 45.4969 40.1145 41.923 43.4013C38.3491 46.6882 33.8953 48.8631 29.1057 49.6605C24.3162 50.458 19.398 49.8434 14.9519 47.8919C10.5058 45.9404 6.72428 42.7364 4.06905 38.6712C1.77976 35.1662 0.413185 31.1519 0.0799927 27C0.0267335 26.3364 -0.00012207 25.6692 -0.00012207 25H1.99988L2 25C2 31.6571 4.82823 37.6536 9.3487 41.8535C13.3976 45.6153 18.804 47.9358 24.7517 47.9987Z" fill="#D9D9D9"/>
<circle cx="24.5" cy="24.5" r="11.5" fill="#D9D9D9"/>
</svg>
