<svg width="24" height="25" viewBox="0 0 24 25" fill="none" xmlns="http://www.w3.org/2000/svg">
<path d="M16.6371 19.78C15.6571 20.73 14.5871 20.58 13.5571 20.13C12.4671 19.67 11.4671 19.65 10.3171 20.13C8.87708 20.75 8.11708 20.57 7.25708 19.78C2.37708 14.75 3.09708 7.09 8.63708 6.81C9.98708 6.88 10.9271 7.55 11.7171 7.61C12.8971 7.37 14.0271 6.68 15.2871 6.77C16.7971 6.89 17.9371 7.49 18.6871 8.57C15.5671 10.44 16.3071 14.55 19.1671 15.7C18.5971 17.2 17.8571 18.69 16.6271 19.79L16.6371 19.78ZM11.6171 6.75C11.4671 4.52 13.2771 2.68 15.3571 2.5C15.6471 5.08 13.0171 7 11.6171 6.75Z" fill="white"/>
</svg>
