<svg width="30" height="30" viewBox="0 0 30 30" fill="none" xmlns="http://www.w3.org/2000/svg">
<g clip-path="url(#clip0_51_281)">
<path d="M30 15.0946C30 7.03427 23.2842 0.5 15 0.5C6.71578 0.5 0 7.03416 0 15.0946C0 22.3791 5.48531 28.4171 12.6562 29.5119V19.3133H8.84766V15.0946H12.6562V11.8792C12.6562 8.22145 14.8957 6.20101 18.3219 6.20101C19.9631 6.20101 21.6797 6.48606 21.6797 6.48606V10.0777H19.7883C17.9248 10.0777 17.3438 11.2027 17.3438 12.357V15.0946H21.5039L20.8389 19.3133H17.3438V29.5119C24.5147 28.4171 30 22.3792 30 15.0946Z" fill="#1877F2"/>
<path d="M20.8389 19.3134L21.5039 15.0946H17.3438V12.357C17.3438 11.2026 17.9249 10.0777 19.7883 10.0777H21.6797V6.48607C21.6797 6.48607 19.9631 6.20102 18.3219 6.20102C14.8957 6.20102 12.6562 8.22146 12.6562 11.8792V15.0946H8.84766V19.3134H12.6562V29.5119C13.4316 29.6301 14.2152 29.6894 15 29.6892C15.7848 29.6894 16.5684 29.6301 17.3438 29.5119V19.3134H20.8389Z" fill="white"/>
</g>
<defs>
<clipPath id="clip0_51_281">
<rect width="30" height="29.1892" fill="white" transform="translate(0 0.5)"/>
</clipPath>
</defs>
</svg>
